# xmcd
#
# Track frame offsets: 
#        150
#        16453
#        33428
#
# Disc length: 655 seconds
#
# Revision: 1
# Processed by: cddbd v1.5.2PL0 Copyright (c) Steve Scherf et al.
# Submitted via: ExactAudioCopyFreeDBPlugin 1.0
#
DISCID=1b028d03
DTITLE=Kwan - Unconditional Love [CDS)
DYEAR=2004
DGENRE=Hip-Hop
TTITLE0=Unconditional Love (Radio Edit)
TTITLE1=Unconditional Love (Album Version)
TTITLE2=Nebula
EXTD=TR.
EXTT0=
EXTT1=
EXTT2=
PLAYORDER=
